<?xml version="1.0" encoding="utf-8"?>
<!-- Generator: Adobe Illustrator 22.1.0, SVG Export Plug-In . SVG Version: 6.00 Build 0)  -->
<svg version="1.1" id="Capa_1" xmlns="http://www.w3.org/2000/svg" xmlns:xlink="http://www.w3.org/1999/xlink" x="0px" y="0px"
	 viewBox="0 0 484.2 484.2" style="enable-background:new 0 0 484.2 484.2;" xml:space="preserve">
<style type="text/css">
	.st0{fill:#FFFFFF;}
</style>
<g>
	<path class="st0" d="M484.1,211L438.3,52.9c-0.3-1.1-1.1-2.1-2.2-2.6c-1.1-0.5-2.3-0.6-3.4-0.2l-12.4,4.6l-2-6.6
		c-0.3-1.1-1.1-2.1-2.2-2.6c-1.1-0.5-2.3-0.6-3.4-0.2C383.2,56.4,368.8,60,305,67.4c-40.2,4.6-56.4,22-63,33.8
		c-6.5-11.9-22.7-29.2-62.8-33.8C115.5,60,101,56.4,71.4,45.3c-1.1-0.4-2.3-0.4-3.4,0.2C67,46,66.2,46.9,65.9,48l-2,6.6L51.5,50
		c-1.1-0.4-2.3-0.3-3.4,0.2c-1.1,0.5-1.8,1.5-2.2,2.6L0.2,211c-0.6,2.2,0.6,4.5,2.8,5.2l141.1,45.5l-59.1,47.5c-1,0.8-1.6,2-1.6,3.3
		v32.5c0,1.7,1,3.3,2.6,3.9c1.6,0.7,3.4,0.3,4.6-0.9l26.3-25.6c4.1-4,10.7-3.9,14.6,0.2l5.1,5.2c1.9,2,3,4.6,2.9,7.4
		s-1.2,5.3-3.1,7.3l-51.7,50.5c-0.8,0.8-1.3,1.9-1.3,3V435c0,1.7,1,3.2,2.6,3.9c0.5,0.2,1.1,0.3,1.7,0.3c1.1,0,2.1-0.4,2.9-1.2
		L242,294.7l151.7,143.4c0.8,0.8,1.9,1.2,2.9,1.2c0.6,0,1.1-0.1,1.7-0.3c1.6-0.7,2.6-2.2,2.6-3.9v-38.8c0-1.1-0.5-2.2-1.3-3
		l-51.7-50.5c-2-1.9-3.1-4.5-3.1-7.3c0-2.8,1-5.4,2.9-7.4l5.1-5.2c4-4.1,10.5-4.2,14.6-0.2l26.3,25.6c1.2,1.2,3,1.5,4.6,0.9
		c1.6-0.7,2.6-2.2,2.6-3.9v-32.5c0-1.3-0.6-2.5-1.6-3.3l-59.1-47.6l141-45.4C483.5,215.5,484.7,213.2,484.1,211z M389.7,110.9h38.7
		l2.4,8h-6.6c-2.3,0-4.3,1.9-4.3,4.3s1.9,4.3,4.3,4.3h9.1l12.8,42.5h-42.9c-2.3,0-4.3,1.9-4.3,4.3s1.9,4.3,4.3,4.3h45.5l4.1,13.5
		c-22,7.9-73.8,23.6-147.5,27.5c-32.1,1.7-48.7,13.7-56.9,23.5c-0.7,0.9-1.4,1.7-2,2.6v-85.1h63.5c2.3,0,4.3-1.9,4.3-4.3
		s-1.9-4.3-4.3-4.3h-63.5v-15.4c0.6-3.2,7.1-31.8,59.7-37.9c61.5-7.1,83.7-13,111.7-23.4l8.2,27.2h-36.1c-2.3,0-4.3,1.9-4.3,4.3
		C385.5,109,387.4,110.9,389.7,110.9z M33.2,185.9h26.5c2.3,0,4.3-1.9,4.3-4.3s-1.9-4.3-4.3-4.3H35.8l7.4-24.5h62.1
		c2.3,0,4.3-1.9,4.3-4.3s-1.9-4.3-4.3-4.3H45.7l5-16.5h23c2.3,0,4.3-1.9,4.3-4.3s-1.9-4.3-4.3-4.3H53.3l13.5-44.8
		c29.5,10.9,52,17.1,111.5,24c52.7,6.1,59,34.9,59.5,37.9v49h-15c-2.3,0-4.3,1.9-4.3,4.3s1.9,4.3,4.3,4.3h15v5.5h-34
		c-2.3,0-4.3,1.9-4.3,4.3s1.9,4.3,4.3,4.3h34v37.5c-0.6-0.8-1.3-1.6-2-2.5c-8.2-9.8-24.8-21.8-56.9-23.5
		c-73.7-3.9-125.5-19.6-147.5-27.5L33.2,185.9z M306,75.9c61.6-7.1,77.9-10.8,105.5-21l3.7,12.2C387.1,77.4,366.3,83,305,90.1
		c-33.4,3.9-50.2,16.5-58.7,27.4v-3.7C246.9,110.6,253.4,81.9,306,75.9z M72.7,54.8c27.6,10.2,44,13.9,105.5,21
		c52.7,6.1,59,34.9,59.5,37.9v3.7c-8.5-10.9-25.3-23.5-58.6-27.3c-59.2-6.9-80.3-12.6-110-23.7L72.7,54.8z M52.8,59.6l8.6,3.1
		L22.1,193.3c-0.6,2.1,0.5,4.4,2.6,5.2c19.8,7.4,74.3,25.2,153.8,29.4c53,2.8,58.8,34.6,59.3,37.7V283L9.5,209.4L52.8,59.6z
		 M91.9,398l50.4-49.3c3.6-3.5,5.6-8.2,5.7-13.2s-1.8-9.8-5.3-13.4l-5.1-5.2c-7.2-7.5-19.2-7.6-26.7-0.4L91.9,335v-20.4l61.9-49.8
		l17.6,5.7l-19.6,19.6c-1.7,1.7-1.7,4.3,0,6c0.8,0.8,1.9,1.2,3,1.2c1.1,0,2.2-0.4,3-1.2l22.7-22.7l23.4,7.5L161,323.9
		c-1.7,1.7-1.7,4.4,0,6c0.8,0.8,1.9,1.2,3,1.2c1.1,0,2.2-0.4,3-1.2l45.9-46l21,6.8l-142,134.4V398z M392.4,314.6V335l-19.1-18.6
		c-7.5-7.2-19.4-7.1-26.7,0.4l-5.1,5.2c-3.5,3.6-5.4,8.4-5.3,13.4c0.1,5,2.1,9.7,5.7,13.2l50.4,49.3v27.2L250.2,290.7l26.1-8.4
		L303,309c0.8,0.8,1.9,1.2,3,1.2s2.2-0.4,3-1.2c1.7-1.7,1.7-4.4,0-6l-23.6-23.6l45.2-14.6L392.4,314.6z M246.3,283v-17.4
		c0.5-3.2,6.5-34.9,59.4-37.7c79.5-4.2,134-22,153.8-29.4c2.1-0.8,3.2-3.1,2.6-5.2L422.8,62.8l8.6-3.2l43.3,149.8L246.3,283z"/>
	<path class="st0" d="M148.2,119.4h-33.5c-2.3,0-4.3,1.9-4.3,4.3s1.9,4.3,4.3,4.3h33.5c2.3,0,4.3-1.9,4.3-4.3
		S150.6,119.4,148.2,119.4z"/>
</g>
</svg>
